<svg width="395" height="395" viewBox="0 0 395 395" fill="none" xmlns="http://www.w3.org/2000/svg">
<path d="M0 197.5C0 88.4238 88.4238 0 197.5 0C306.576 0 395 88.4238 395 197.5C395 306.576 306.576 395 197.5 395C88.4238 395 0 306.576 0 197.5Z" fill="white"/>
<path d="M131.023 222.179C104.724 214.868 85 193.664 85 162.955C85 124.935 116.413 103 150.017 103H310V149.064H216.493V184.891H288.815V229.491H216.493V293.102H166.818V147.601H149.285C141.25 147.601 131.753 152.719 131.753 162.955C131.753 170.998 136.867 176.116 143.441 179.041L131.023 222.179Z" fill="#0093E9"/>
</svg>
